<mxfile host="app.diagrams.net" agent="Mozilla/5.0 (Windows NT 10.0; Win64; x64) AppleWebKit/537.36 (KHTML, like Gecko) Chrome/138.0.0.0 Safari/537.36" version="28.0.9">
  <diagram name="Page-1" id="mD11ViV72X39HFnmr9vb">
    <mxGraphModel dx="1042" dy="570" grid="1" gridSize="10" guides="1" tooltips="1" connect="1" arrows="1" fold="1" page="1" pageScale="1" pageWidth="850" pageHeight="1100" math="0" shadow="0">
      <root>
        <mxCell id="0" />
        <mxCell id="1" parent="0" />
        <mxCell id="UtgPFTbntqC9pTOLvFnR-4" value="booth" style="swimlane;whiteSpace=wrap;html=1;" vertex="1" parent="1">
          <mxGeometry x="80" y="120" width="240" height="200" as="geometry" />
        </mxCell>
        <mxCell id="UtgPFTbntqC9pTOLvFnR-6" value="booth_number&lt;br&gt;&lt;br&gt;booth_price_level&lt;br&gt;&lt;br&gt;booth_description&lt;br&gt;&lt;br&gt;booth_type" style="rounded=0;whiteSpace=wrap;html=1;" vertex="1" parent="UtgPFTbntqC9pTOLvFnR-4">
          <mxGeometry y="20" width="240" height="180" as="geometry" />
        </mxCell>
        <mxCell id="UtgPFTbntqC9pTOLvFnR-5" value="vendor_booth_assignment" style="swimlane;whiteSpace=wrap;html=1;" vertex="1" parent="1">
          <mxGeometry x="440" y="120" width="280" height="200" as="geometry" />
        </mxCell>
        <mxCell id="UtgPFTbntqC9pTOLvFnR-8" value="" style="shape=table;startSize=0;container=1;collapsible=0;childLayout=tableLayout;fontSize=11;fillColor=none;strokeColor=none;" vertex="1" parent="UtgPFTbntqC9pTOLvFnR-5">
          <mxGeometry x="10" y="30" width="260" height="160" as="geometry" />
        </mxCell>
        <mxCell id="UtgPFTbntqC9pTOLvFnR-11" value="vendor_id&lt;div&gt;&lt;br&gt;&lt;/div&gt;&lt;div&gt;booth_number&lt;/div&gt;&lt;div&gt;&lt;br&gt;&lt;/div&gt;&lt;div&gt;market_date&lt;/div&gt;" style="rounded=0;whiteSpace=wrap;html=1;" vertex="1" parent="UtgPFTbntqC9pTOLvFnR-5">
          <mxGeometry y="20" width="280" height="180" as="geometry" />
        </mxCell>
        <mxCell id="UtgPFTbntqC9pTOLvFnR-7" value="" style="shape=table;startSize=0;container=1;collapsible=0;childLayout=tableLayout;fontSize=11;fillColor=none;strokeColor=none;" vertex="1" parent="1">
          <mxGeometry x="400" y="240" width="60" height="60" as="geometry" />
        </mxCell>
        <mxCell id="UtgPFTbntqC9pTOLvFnR-13" value="" style="edgeStyle=entityRelationEdgeStyle;fontSize=12;html=1;endArrow=ERoneToMany;rounded=0;entryX=-0.022;entryY=0.529;entryDx=0;entryDy=0;entryPerimeter=0;" edge="1" parent="1" target="UtgPFTbntqC9pTOLvFnR-8">
          <mxGeometry width="100" height="100" relative="1" as="geometry">
            <mxPoint x="320" y="190" as="sourcePoint" />
            <mxPoint x="420" y="90" as="targetPoint" />
          </mxGeometry>
        </mxCell>
        <mxCell id="UtgPFTbntqC9pTOLvFnR-14" value="1 -------------+------------- M" style="rounded=0;whiteSpace=wrap;html=1;" vertex="1" parent="1">
          <mxGeometry x="160" y="360" width="460" height="40" as="geometry" />
        </mxCell>
      </root>
    </mxGraphModel>
  </diagram>
</mxfile>
